<svg id="visual" viewBox="0 0 900 600" width="900" height="600" xmlns="http://www.w3.org/2000/svg" xmlns:xlink="http://www.w3.org/1999/xlink" version="1.1"><path d="M0 365L21.5 364.5C43 364 86 363 128.8 364.2C171.7 365.3 214.3 368.7 257.2 374.2C300 379.7 343 387.3 385.8 389.5C428.7 391.7 471.3 388.3 514.2 394.8C557 401.3 600 417.7 642.8 427.5C685.7 437.3 728.3 440.7 771.2 438C814 435.3 857 426.7 878.5 422.3L900 418L900 601L878.5 601C857 601 814 601 771.2 601C728.3 601 685.7 601 642.8 601C600 601 557 601 514.2 601C471.3 601 428.7 601 385.8 601C343 601 300 601 257.2 601C214.3 601 171.7 601 128.8 601C86 601 43 601 21.5 601L0 601Z" fill="#fa7268"></path><path d="M0 406L21.5 415.5C43 425 86 444 128.8 447.3C171.7 450.7 214.3 438.3 257.2 439C300 439.7 343 453.3 385.8 451.3C428.7 449.3 471.3 431.7 514.2 431.5C557 431.3 600 448.7 642.8 449.2C685.7 449.7 728.3 433.3 771.2 430.3C814 427.3 857 437.7 878.5 442.8L900 448L900 601L878.5 601C857 601 814 601 771.2 601C728.3 601 685.7 601 642.8 601C600 601 557 601 514.2 601C471.3 601 428.7 601 385.8 601C343 601 300 601 257.2 601C214.3 601 171.7 601 128.8 601C86 601 43 601 21.5 601L0 601Z" fill="#ef5f67"></path><path d="M0 498L21.5 491.3C43 484.7 86 471.3 128.8 461.5C171.7 451.7 214.3 445.3 257.2 445.7C300 446 343 453 385.8 453.7C428.7 454.3 471.3 448.7 514.2 444.8C557 441 600 439 642.8 438.8C685.7 438.7 728.3 440.3 771.2 440.5C814 440.7 857 439.3 878.5 438.7L900 438L900 601L878.5 601C857 601 814 601 771.2 601C728.3 601 685.7 601 642.8 601C600 601 557 601 514.2 601C471.3 601 428.7 601 385.8 601C343 601 300 601 257.2 601C214.3 601 171.7 601 128.8 601C86 601 43 601 21.5 601L0 601Z" fill="#e34c67"></path><path d="M0 537L21.5 530.2C43 523.3 86 509.7 128.8 500.2C171.7 490.7 214.3 485.3 257.2 486C300 486.7 343 493.3 385.8 495.5C428.7 497.7 471.3 495.3 514.2 501.3C557 507.3 600 521.7 642.8 528.2C685.7 534.7 728.3 533.3 771.2 531.8C814 530.3 857 528.7 878.5 527.8L900 527L900 601L878.5 601C857 601 814 601 771.2 601C728.3 601 685.7 601 642.8 601C600 601 557 601 514.2 601C471.3 601 428.7 601 385.8 601C343 601 300 601 257.2 601C214.3 601 171.7 601 128.8 601C86 601 43 601 21.5 601L0 601Z" fill="#d53867"></path><path d="M0 550L21.5 553.5C43 557 86 564 128.8 562.8C171.7 561.7 214.3 552.3 257.2 546C300 539.7 343 536.3 385.8 538.5C428.7 540.7 471.3 548.3 514.2 551.7C557 555 600 554 642.8 556.8C685.7 559.7 728.3 566.3 771.2 567.8C814 569.3 857 565.7 878.5 563.8L900 562L900 601L878.5 601C857 601 814 601 771.2 601C728.3 601 685.7 601 642.8 601C600 601 557 601 514.2 601C471.3 601 428.7 601 385.8 601C343 601 300 601 257.2 601C214.3 601 171.7 601 128.8 601C86 601 43 601 21.5 601L0 601Z" fill="#c62368"></path></svg>